<svg xmlns="http://www.w3.org/2000/svg" version="1.1" xmlns:xlink="http://www.w3.org/1999/xlink" xmlns:svgjs="http://svgjs.dev/svgjs" width="1000" height="1000" viewBox="0 0 1000 1000"><rect width="1000" height="1000" fill="#000000"></rect><g transform="matrix(0.7,0,0,0.7,149.57575757575756,410.98807923727577)"><svg viewBox="0 0 396 101" data-background-color="#8abcd7" preserveAspectRatio="xMidYMid meet" height="255" width="1000" xmlns="http://www.w3.org/2000/svg" xmlns:xlink="http://www.w3.org/1999/xlink"><g id="tight-bounds" transform="matrix(1,0,0,1,0.2400000000000091,-0.13471150120366815)"><svg viewBox="0 0 395.52 101.26942300240735" height="101.26942300240735" width="395.52"><g><svg viewBox="0 0 593.0151354000857 151.8363182485365" height="101.26942300240735" width="395.52"><g><rect width="5.343862684409031" height="110.41642535439881" x="165.8236560348971" y="20.709946447068837" fill="#ffffff" opacity="1" stroke-width="0" stroke="transparent" fill-opacity="1" class="rect-r$-0" data-fill-palette-color="primary" rx="1%" id="r$-0" data-palette-color="#ffffff"></rect></g><g><rect width="5.343862684409031" height="110.41642535439881" x="178.162103384763" y="20.709946447068837" fill="#ffffff" opacity="1" stroke-width="0" stroke="transparent" fill-opacity="1" class="rect-r$-1" data-fill-palette-color="primary" rx="1%" id="r$-1" data-palette-color="#ffffff"></rect></g><g transform="matrix(1,0,0,1,197.4951354000857,20.98461417183102)"><svg viewBox="0 0 395.52 109.86708990487445" height="109.86708990487445" width="395.52"><g id="textblocktransform"><svg viewBox="0 0 395.52 109.86708990487445" height="109.86708990487445" width="395.52" id="textblock"><g><svg viewBox="0 0 395.52 59.25705845115003" height="59.25705845115003" width="395.52"><g transform="matrix(1,0,0,1,0,0)"><svg width="395.52" viewBox="3.35 -34.9 236.93 35.5" height="59.25705845115003" data-palette-color="#ffffff"><path d="M3.35 0L3.35-34.3 15.6-34.3Q20.6-34.3 23.3-31.55 26-28.8 26-24.2L26-24.2Q26-19.55 23.18-16.73 20.35-13.9 15.6-13.9L15.6-13.9 8.35-13.9 8.35 0 3.35 0ZM8.35-18.4L15.3-18.4Q17.8-18.4 19.28-19.98 20.75-21.55 20.75-24.2L20.75-24.2Q20.75-26.8 19.33-28.28 17.9-29.75 15.3-29.75L15.3-29.75 8.35-29.75 8.35-18.4ZM30.7 0L30.7-34.3 52.05-34.3 52.05-29.75 35.7-29.75 35.7-19.8 49.85-19.8 49.85-15.3 35.7-15.3 35.7-4.55 52.35-4.55 52.35 0 30.7 0ZM64.7 0L64.7-29.75 55.6-29.75 55.6-34.3 78.8-34.3 78.8-29.75 69.75-29.75 69.75 0 64.7 0ZM83.09 0L83.09-34.3 97.04-34.3Q102.04-34.3 104.72-31.68 107.39-29.05 107.39-24.7L107.39-24.7Q107.39-21.55 105.79-19.2 104.19-16.85 101.39-15.85L101.39-15.85 108.19 0 102.64 0 96.49-14.9 88.09-14.9 88.09 0 83.09 0ZM88.09-19.4L96.69-19.4Q99.19-19.4 100.62-20.85 102.04-22.3 102.04-24.7L102.04-24.7Q102.04-27.05 100.69-28.4 99.34-29.75 96.74-29.75L96.74-29.75 88.09-29.75 88.09-19.4ZM112.54 0L112.54-34.3 117.54-34.3 117.54 0 112.54 0ZM136.24 0.6Q129.59 0.6 126.14-3.83 122.69-8.25 122.69-17.15L122.69-17.15Q122.69-26.05 126.14-30.48 129.59-34.9 136.24-34.9L136.24-34.9Q141.74-34.9 145.09-31.58 148.44-28.25 148.44-21.8L148.44-21.8 143.29-21.8Q143.29-26 141.39-28.2 139.49-30.4 136.24-30.4L136.24-30.4Q127.94-30.4 127.94-18.4L127.94-18.4 127.94-15.9Q127.94-3.9 136.34-3.9L136.34-3.9Q139.64-3.9 141.56-6.08 143.49-8.25 143.49-12.45L143.49-12.45 148.44-12.45Q148.44-6 145.11-2.7 141.79 0.6 136.24 0.6L136.24 0.6ZM153.69 0L153.69-34.3 158.69-34.3 158.69-19.8 171.59-19.8 171.59-34.3 176.59-34.3 176.59 0 171.59 0 171.59-15.3 158.69-15.3 158.69 0 153.69 0ZM195.88 0.6Q189.33 0.6 185.73-3.88 182.13-8.35 182.13-17.15L182.13-17.15Q182.13-25.95 185.73-30.43 189.33-34.9 195.88-34.9L195.88-34.9Q202.43-34.9 206.03-30.43 209.63-25.95 209.63-17.15L209.63-17.15Q209.63-8.35 206.03-3.88 202.43 0.6 195.88 0.6L195.88 0.6ZM195.88-3.9Q199.93-3.9 202.16-6.98 204.38-10.05 204.38-15.9L204.38-15.9 204.38-18.4Q204.38-24.25 202.16-27.33 199.93-30.4 195.88-30.4L195.88-30.4Q191.83-30.4 189.61-27.33 187.38-24.25 187.38-18.4L187.38-18.4 187.38-15.9Q187.38-10.05 189.61-6.98 191.83-3.9 195.88-3.9L195.88-3.9ZM215.18 0L215.18-34.3 229.13-34.3Q234.13-34.3 236.81-31.68 239.48-29.05 239.48-24.7L239.48-24.7Q239.48-21.55 237.88-19.2 236.28-16.85 233.48-15.85L233.48-15.85 240.28 0 234.73 0 228.58-14.9 220.18-14.9 220.18 0 215.18 0ZM220.18-19.4L228.78-19.4Q231.28-19.4 232.71-20.85 234.13-22.3 234.13-24.7L234.13-24.7Q234.13-27.05 232.78-28.4 231.43-29.75 228.83-29.75L228.83-29.75 220.18-29.75 220.18-19.4Z" opacity="1" transform="matrix(1,0,0,1,0,0)" fill="#ffffff" class="wordmark-text-0" data-fill-palette-color="primary" id="text-0"></path></svg></g></svg></g><g transform="matrix(1,0,0,1,107.51378925604519,73.24622778206373)"><svg viewBox="0 0 180.4924214879096 36.62086212281072" height="36.62086212281072" width="180.4924214879096"><g transform="matrix(1,0,0,1,0,0)"><svg width="180.4924214879096" viewBox="1.1 -33.3 165.84 33.65" height="36.62086212281072" data-palette-color="#ffffff"><path d="M12.55-19.3L6.9-19.3 6.9-3.25Q6.9-2.85 7-2.38 7.1-1.9 7.33-1.5 7.55-1.1 7.83-0.8 8.1-0.5 8.5-0.5L8.5-0.5 8.5 0 2 0 2-0.5Q2.35-0.5 2.65-0.8 2.95-1.1 3.18-1.5 3.4-1.9 3.5-2.38 3.6-2.85 3.6-3.25L3.6-3.25 3.6-19.3 1.1-19.3 1.1-21 3.6-21 3.6-25.05Q3.6-26.6 3.7-28.05 3.8-29.5 4.3-30.65 4.8-31.8 5.83-32.5 6.85-33.2 8.65-33.2L8.65-33.2Q9.65-33.2 10.38-32.98 11.1-32.75 11.63-32.48 12.15-32.2 12.5-31.98 12.85-31.75 13.1-31.75L13.1-31.75 13.1-28.1 12.65-28.1Q12.4-29.55 11.35-30.53 10.3-31.5 9.25-31.5L9.25-31.5Q7.8-31.5 7.35-29.98 6.9-28.45 6.9-25.75L6.9-25.75 6.9-21 12.55-21 12.55-19.3ZM29.95-20.4L28.45-17.35Q27.85-18.35 27.2-18.6 26.55-18.85 25.7-18.85L25.7-18.85Q25.15-18.85 24.52-18.6 23.9-18.35 23.3-17.95 22.7-17.55 22.12-17.07 21.55-16.6 21.15-16.2L21.15-16.2 21.15-3.2Q21.15-2.8 21.25-2.35 21.35-1.9 21.57-1.48 21.8-1.05 22.07-0.78 22.35-0.5 22.75-0.5L22.75-0.5 22.75 0 16.25 0 16.25-0.5Q16.6-0.5 16.9-0.78 17.2-1.05 17.42-1.48 17.65-1.9 17.75-2.35 17.85-2.8 17.85-3.2L17.85-3.2 17.85-17.15Q17.85-17.85 17.4-18.55 16.95-19.25 16.1-19.45L16.1-19.45 16.1-19.85 21.15-21.35 21.15-18.35Q21.6-18.9 22.1-19.43 22.6-19.95 23.22-20.38 23.85-20.8 24.6-21.08 25.35-21.35 26.35-21.35L26.35-21.35Q27.05-21.35 28.15-21.05 29.25-20.75 29.95-20.4L29.95-20.4ZM53.2-10.1L35.84-10.1Q36.05-8.35 36.7-6.78 37.34-5.2 38.42-4 39.5-2.8 41.05-2.08 42.59-1.35 44.65-1.35L44.65-1.35Q45.75-1.35 46.97-1.68 48.2-2 49.25-2.6 50.3-3.2 51.12-4.08 51.95-4.95 52.25-6.05L52.25-6.05 52.7-6.05 52.7-2.3Q52.4-2.3 52.02-2.1 51.65-1.9 51.15-1.6L51.15-1.6Q50.15-1 48.45-0.33 46.75 0.35 43.95 0.35L43.95 0.35Q41.7 0.35 39.67-0.3 37.65-0.95 36.09-2.3 34.55-3.65 33.62-5.75 32.7-7.85 32.7-10.75L32.7-10.75Q32.7-12.6 33.32-14.5 33.95-16.4 35.22-17.93 36.5-19.45 38.5-20.4 40.5-21.35 43.3-21.35L43.3-21.35Q45.8-21.35 47.67-20.5 49.55-19.65 50.77-18.15 52-16.65 52.59-14.6 53.2-12.55 53.2-10.1L53.2-10.1ZM43.09-19.7L43.09-19.7Q41.34-19.7 40.07-19 38.8-18.3 37.9-17.2 37-16.1 36.5-14.7 36-13.3 35.84-11.9L35.84-11.9 50.09-11.9Q50.05-13.35 49.57-14.75 49.09-16.15 48.25-17.25 47.4-18.35 46.09-19.03 44.8-19.7 43.09-19.7ZM77.44-10.1L60.09-10.1Q60.29-8.35 60.94-6.78 61.59-5.2 62.67-4 63.74-2.8 65.29-2.08 66.84-1.35 68.89-1.35L68.89-1.35Q69.99-1.35 71.22-1.68 72.44-2 73.49-2.6 74.54-3.2 75.37-4.08 76.19-4.95 76.49-6.05L76.49-6.05 76.94-6.05 76.94-2.3Q76.64-2.3 76.27-2.1 75.89-1.9 75.39-1.6L75.39-1.6Q74.39-1 72.69-0.33 70.99 0.35 68.19 0.35L68.19 0.35Q65.94 0.35 63.92-0.3 61.89-0.95 60.34-2.3 58.79-3.65 57.87-5.75 56.94-7.85 56.94-10.75L56.94-10.75Q56.94-12.6 57.57-14.5 58.19-16.4 59.47-17.93 60.74-19.45 62.74-20.4 64.74-21.35 67.54-21.35L67.54-21.35Q70.04-21.35 71.92-20.5 73.79-19.65 75.02-18.15 76.24-16.65 76.84-14.6 77.44-12.55 77.44-10.1L77.44-10.1ZM67.34-19.7L67.34-19.7Q65.59-19.7 64.32-19 63.04-18.3 62.14-17.2 61.24-16.1 60.74-14.7 60.24-13.3 60.09-11.9L60.09-11.9 74.34-11.9Q74.29-13.35 73.82-14.75 73.34-16.15 72.49-17.25 71.64-18.35 70.34-19.03 69.04-19.7 67.34-19.7ZM102.39 0L97.49 0 97.49-2.2Q96.64-1.25 95.22-0.45 93.79 0.35 91.64 0.35L91.64 0.35Q88.99 0.35 87.02-0.58 85.04-1.5 83.74-3 82.44-4.5 81.81-6.43 81.19-8.35 81.19-10.4L81.19-10.4Q81.19-12.4 81.84-14.38 82.49-16.35 83.79-17.9 85.09-19.45 87.04-20.4 88.99-21.35 91.54-21.35L91.54-21.35Q93.24-21.35 94.89-20.73 96.54-20.1 97.49-19.1L97.49-19.1 97.49-28.85Q97.49-29.7 97.24-30.45 96.99-31.2 95.79-31.25L95.79-31.25 95.79-31.75 100.79-33.3 100.79-3.25Q100.79-2.85 100.89-2.38 100.99-1.9 101.19-1.5 101.39-1.1 101.69-0.8 101.99-0.5 102.39-0.5L102.39-0.5 102.39 0ZM91.99-1.3L91.99-1.3Q93.04-1.3 94.04-1.73 95.04-2.15 95.79-2.88 96.54-3.6 97.02-4.58 97.49-5.55 97.49-6.7L97.49-6.7 97.49-13.55Q97.49-14.95 96.89-16.07 96.29-17.2 95.39-18 94.49-18.8 93.42-19.23 92.34-19.65 91.34-19.65L91.34-19.65Q89.69-19.65 88.39-18.88 87.09-18.1 86.19-16.88 85.29-15.65 84.84-14.13 84.39-12.6 84.39-11.1L84.39-11.1Q84.39-9.35 84.89-7.63 85.39-5.9 86.37-4.53 87.34-3.15 88.74-2.25 90.14-1.35 91.99-1.3ZM117.74 0.35L117.74 0.35Q115.24 0.35 113.24-0.48 111.24-1.3 109.81-2.73 108.39-4.15 107.61-6.1 106.84-8.05 106.84-10.35L106.84-10.35Q106.84-12.8 107.69-14.83 108.54-16.85 110.04-18.3 111.54-19.75 113.59-20.55 115.64-21.35 118.04-21.35L118.04-21.35Q120.44-21.35 122.44-20.58 124.44-19.8 125.89-18.4 127.34-17 128.14-15.08 128.94-13.15 128.94-10.85L128.94-10.85Q128.94-8.7 128.21-6.68 127.49-4.65 126.06-3.1 124.64-1.55 122.56-0.6 120.49 0.35 117.74 0.35ZM117.44-19.7L117.44-19.7Q115.64-19.6 114.26-18.82 112.89-18.05 111.96-16.82 111.04-15.6 110.56-14.05 110.09-12.5 110.09-10.9L110.09-10.9Q110.09-9.05 110.66-7.33 111.24-5.6 112.31-4.25 113.39-2.9 114.89-2.1 116.39-1.3 118.24-1.3L118.24-1.3Q120.09-1.3 121.51-2.1 122.94-2.9 123.89-4.17 124.84-5.45 125.31-7.05 125.79-8.65 125.79-10.25L125.79-10.25Q125.79-11.9 125.29-13.58 124.79-15.25 123.74-16.63 122.69-18 121.11-18.85 119.54-19.7 117.44-19.7ZM165.39-12.6L165.39-3.25Q165.39-2.85 165.49-2.38 165.59-1.9 165.79-1.5 165.99-1.1 166.26-0.8 166.54-0.5 166.94-0.5L166.94-0.5 166.94 0 160.44 0 160.44-0.5Q160.84-0.5 161.14-0.8 161.44-1.1 161.66-1.5 161.89-1.9 161.99-2.38 162.09-2.85 162.09-3.25L162.09-3.25 162.09-14.05Q162.09-15.2 161.76-16.25 161.44-17.3 160.79-18.07 160.14-18.85 159.19-19.33 158.24-19.8 157.04-19.8L157.04-19.8Q155.69-19.8 154.71-19.18 153.74-18.55 153.11-17.65 152.49-16.75 152.19-15.83 151.89-14.9 151.89-14.3L151.89-14.3 151.89-3.25Q151.89-2.85 151.99-2.38 152.09-1.9 152.31-1.5 152.54-1.1 152.81-0.8 153.09-0.5 153.49-0.5L153.49-0.5 153.49 0 147.04 0 147.04-0.5Q147.39-0.5 147.69-0.8 147.99-1.1 148.21-1.5 148.44-1.9 148.54-2.38 148.64-2.85 148.64-3.25L148.64-3.25 148.64-14.35Q148.64-15.55 148.21-16.57 147.79-17.6 147.06-18.3 146.34-19 145.41-19.4 144.49-19.8 143.54-19.8L143.54-19.8Q142.24-19.8 141.26-19.3 140.29-18.8 139.66-18.05 139.04-17.3 138.71-16.43 138.39-15.55 138.39-14.75L138.39-14.75 138.39-3.25Q138.39-2.85 138.49-2.38 138.59-1.9 138.81-1.5 139.04-1.1 139.31-0.8 139.59-0.5 139.99-0.5L139.99-0.5 139.99 0 133.54 0 133.54-0.5Q133.89-0.5 134.19-0.8 134.49-1.1 134.71-1.5 134.94-1.9 135.04-2.38 135.14-2.85 135.14-3.25L135.14-3.25 135.14-16.6Q135.14-17 135.09-17.5 135.04-18 134.89-18.45 134.74-18.9 134.39-19.2 134.04-19.5 133.44-19.5L133.44-19.5 133.44-19.95 138.39-21.6 138.39-19.05Q139.14-19.9 140.46-20.7 141.79-21.5 143.94-21.5L143.94-21.5Q145.34-21.5 146.44-21.1 147.54-20.7 148.36-20.08 149.19-19.45 149.79-18.65 150.39-17.85 150.79-17.1L150.79-17.1Q151.19-17.85 151.74-18.63 152.29-19.4 153.06-20.05 153.84-20.7 154.91-21.1 155.99-21.5 157.44-21.5L157.44-21.5Q160.24-21.5 161.84-20.5 163.44-19.5 164.21-18.1 164.99-16.7 165.19-15.18 165.39-13.65 165.39-12.6L165.39-12.6Z" opacity="1" transform="matrix(1,0,0,1,0,0)" fill="#ffffff" class="slogan-text-1" data-fill-palette-color="secondary" id="text-1"></path></svg></g></svg></g></svg></g></svg></g><g><svg viewBox="0 0 151.83448670398343 151.8363182485365" height="151.8363182485365" width="151.83448670398343"><g><svg xmlns="http://www.w3.org/2000/svg" xmlns:xlink="http://www.w3.org/1999/xlink" version="1.1" x="0" y="0" viewBox="5.412824897783869 5.195582772773262 79.76931438294501 79.77027662186998" enable-background="new 0 0 90 90" xml:space="preserve" height="151.8363182485365" width="151.83448670398343" class="icon-icon-0" data-fill-palette-color="accent" id="icon-0"><path d="M54.624 83.27c-10.792 1.801-22.246-1.411-30.727-8.272-8.062-6.522-13.088-16.744-12.728-27.17 0.349-10.096 5.499-20.182 14.078-25.707 8.769-5.647 20.783-5.62 29.498 0.129 8.154 5.379 12.661 15.857 9.907 25.391-1.424 4.931-4.572 9.475-9.052 12.082-4.663 2.714-10.561 3.268-15.615 1.341-4.544-1.733-8.418-5.448-9.851-10.154-1.47-4.826-0.243-10.416 3.327-14.027 3.452-3.492 8.998-4.743 13.484-2.567 4.259 2.065 6.884 7.148 5.307 11.755-0.85 2.483-2.859 4.611-5.423 5.317-2.69 0.741-5.774-0.221-7.439-2.493-1.629-2.222-1.495-5.503 0.597-7.389 1.054-0.95 2.599-1.429 3.984-1.015 0.41 0.122 2.233 0.566 2.058 1.209 0.087-0.652-1.341-0.82-1.755-0.934-1.29-0.356-2.733 0.004-3.719 0.904-1.739 1.586-1.995 4.459-0.597 6.34 1.417 1.906 4.102 2.721 6.348 1.971 2.287-0.765 3.875-3.013 4.245-5.344 0.746-4.703-3.812-8.759-8.323-8.569-4.774 0.201-8.548 4.373-9.111 8.971-1.056 8.621 8.8 14.488 16.466 12.536 8.546-2.177 12.86-12.372 10.766-20.465-2.34-9.045-11.891-14.664-20.877-14.543-9.785 0.131-18.28 7.23-21.955 16.011-4.038 9.649-2.194 21.17 4.201 29.364 6.485 8.309 16.93 13.113 27.352 13.664 5.766 0.305 11.749-0.537 17.004-3.006 4.955-2.328 8.907-6.258 11.976-10.734 6.303-9.194 8.662-20.938 6.135-31.824C79.845 17.355 61.052 3.689 41.936 5.329 23.164 6.939 7.154 22.991 5.551 41.756c-0.918 10.74 2.777 21.76 9.928 29.817 7.078 7.976 17.424 12.875 28.071 13.353 6.118 0.275 12.303-0.876 17.903-3.359-2.472 0.844-4.993 1.695-7.622 1.838 0.506-0.028 0.982-0.246 1.492-0.242-1.79-0.014-3.465 0.776-5.242 0.87 1.034-0.055 2.103-0.271 3.095-0.566 0.337-0.101 1.458-0.578 1.755-0.242-0.207-0.235-1.358 0.182-1.613 0.243-0.926 0.221-1.953 0.452-2.902 0.51 0.426-0.026 4.536-0.711 4.53-0.755 0.008 0.065-4.022 0.607-4.613 0.769 0.714-0.196 1.505-0.245 2.235-0.367 0.292-0.048 2.164-0.591 2.374-0.402C54.91 83.194 54.661 83.264 54.624 83.27 43.928 85.055 57.114 82.88 54.624 83.27z" fill="#ffffff" data-fill-palette-color="accent"></path></svg></g></svg></g></svg></g><defs></defs></svg><rect width="395.52" height="101.26942300240735" fill="none" stroke="none" visibility="hidden"></rect></g></svg></g></svg>